<?xml version="1.0" encoding="utf-8"?>
<!-- Generator: Adobe Illustrator 24.3.0, SVG Export Plug-In . SVG Version: 6.00 Build 0)  -->
<svg version="1.1" id="Layer_1" xmlns="http://www.w3.org/2000/svg" xmlns:xlink="http://www.w3.org/1999/xlink" x="0px" y="0px"
	 viewBox="0 0 500 500" style="enable-background:new 0 0 500 500;" xml:space="preserve">
<style type="text/css">
	.st0{fill:#FFFFFF;}
</style>
<g>
	<path class="st0" d="M93.61,185.01l14.88-8.62c2,5.14,5.66,7.75,10.97,7.75c3.92,0,5.92-1.04,5.92-3.13c0-1.13-0.44-2.09-2.09-2.79
		c-0.78-0.35-1.57-0.61-2.18-0.78c-0.61-0.26-1.65-0.52-3.13-0.96l-3.39-0.96c-12.1-3.66-18.19-10.18-18.19-19.58
		c0-5.57,2-10.18,6.01-13.84c4.09-3.66,9.4-5.48,15.93-5.48c10.36,0,19.06,5.05,22.89,14.19l-14.45,8.44
		c-1.65-4.26-4.44-6.44-8.36-6.44c-3.05,0-4.61,1.39-4.61,3.22c0,1.31,0.7,2.26,2,2.96c1.39,0.7,4,1.57,7.92,2.7
		c5.83,1.74,8.88,2.96,12.97,5.83c4.09,2.79,6.09,7.31,6.09,13.32c0,12.45-9.14,19.5-23.76,19.5
		C105.8,200.33,96.66,194.41,93.61,185.01z"/>
	<path class="st0" d="M177.69,200.33c-9.05,0-16.71-3.05-22.98-9.14c-6.18-6.18-9.31-13.75-9.31-22.72c0-8.96,3.13-16.54,9.31-22.63
		c6.27-6.18,13.93-9.23,22.98-9.23s16.71,3.05,22.89,9.23c6.27,6.09,9.4,13.66,9.4,22.63c0,8.96-3.13,16.54-9.4,22.72
		C194.4,197.28,186.74,200.33,177.69,200.33z M177.69,183.27c4.26,0,7.83-1.39,10.62-4.18c2.87-2.87,4.26-6.35,4.26-10.62
		c0-4.26-1.39-7.75-4.26-10.53c-2.79-2.87-6.35-4.26-10.62-4.26s-7.83,1.39-10.71,4.26c-2.79,2.79-4.18,6.27-4.18,10.53
		c0,4.27,1.39,7.75,4.18,10.62C169.86,181.88,173.42,183.27,177.69,183.27z"/>
	<path class="st0" d="M280.04,138.01v60.93h-17.41v-29.68l-13.58,22.8h-1.57l-13.58-22.8v29.68h-17.41v-60.93h17.41l14.36,24.81
		l14.36-24.81H280.04z"/>
	<path class="st0" d="M306.15,182.92h22.63v16.01h-40.04v-60.93h39.6v15.84h-22.19v6.62h20.02v15.67h-20.02V182.92z"/>
	<path class="st0" d="M129.3,217.01h17.41v60.93H129.3v-22.46h-14.8v22.46H97.09v-60.93h17.41v21.58h14.8V217.01z"/>
	<path class="st0" d="M172.82,261.92h22.63v16.01h-40.04v-60.93h39.6v15.84h-22.19v6.62h20.02v15.67h-20.02V261.92z"/>
	<path class="st0" d="M219.81,261.05h20.02v16.88h-37.43v-60.93h17.41V261.05z"/>
	<path class="st0" d="M269.42,217.01c6.35,0,11.58,2,15.84,6.01c4.26,3.92,6.35,9.23,6.35,15.84s-2.09,11.92-6.35,15.93
		c-4.26,3.92-9.49,5.92-15.84,5.92h-6.96v17.23h-17.41v-60.93H269.42z M269.42,243.82c2.7,0,4.79-1.92,4.79-4.96
		c0-3.05-2.09-4.96-4.79-4.96h-6.96v9.92H269.42z"/>
	<path class="st0" d="M296.84,217.01h17.41v60.93h-17.41V217.01z"/>
	<path class="st0" d="M356.02,217.01h17.41v60.93H359.5l-19.15-27.85v27.85h-17.41v-60.93h13.93l19.15,27.85V217.01z"/>
	<path class="st0" d="M442.8,241.99v7.22c0,8.7-2.79,15.93-8.44,21.58c-5.57,5.66-12.88,8.53-22.02,8.53
		c-9.49,0-17.32-3.05-23.33-9.05c-6.01-6.09-9.05-13.66-9.05-22.72c0-9.05,3.05-16.62,9.05-22.72c6.01-6.18,13.58-9.23,22.63-9.23
		c11.4,0,21.32,5.48,26.81,14.19l-14.8,8.44c-2.44-3.74-6.35-5.57-11.66-5.57c-4.35,0-7.92,1.39-10.62,4.18s-4,6.35-4,10.79
		c0,4.18,1.22,7.83,3.74,10.97c2.52,3.05,6.35,4.61,11.58,4.61c6.01,0,10.1-2.18,12.1-6.44h-12.97v-14.8H442.8z"/>
	<path class="st0" d="M129.3,296.01h17.41v60.92H129.3v-22.46h-14.8v22.46H97.09v-60.92h17.41v21.58h14.8V296.01z"/>
	<path class="st0" d="M190.66,356.94l-2.09-7.83h-17.58l-2.09,7.83h-18.71l19.41-60.92h20.37l19.41,60.92H190.66z M174.73,335.18
		h10.1l-5.05-18.71L174.73,335.18z"/>
	<path class="st0" d="M245.92,296.01h17.41v60.92h-13.93l-19.15-27.85v27.85h-17.41v-60.92h13.93l19.15,27.85V296.01z"/>
	<path class="st0" d="M297.27,296.01c8.44,0,15.41,2.96,21.06,8.79s8.53,13.06,8.53,21.67s-2.87,15.93-8.53,21.76
		c-5.66,5.83-12.62,8.7-21.06,8.7h-25.24v-60.92H297.27z M297.27,340.05c7.05,0,12.19-5.57,12.19-13.58
		c0-8.01-5.13-13.58-12.19-13.58h-6.96v27.16H297.27z"/>
	<path class="st0" d="M327.3,343.01l14.88-8.62c2,5.13,5.66,7.75,10.97,7.75c3.92,0,5.92-1.04,5.92-3.13c0-1.13-0.44-2.09-2.09-2.79
		c-0.78-0.35-1.57-0.61-2.18-0.78c-0.61-0.26-1.65-0.52-3.13-0.96l-3.39-0.96c-12.1-3.66-18.19-10.18-18.19-19.58
		c0-5.57,2-10.18,6.01-13.84c4.09-3.66,9.4-5.48,15.93-5.48c10.36,0,19.06,5.05,22.89,14.19l-14.45,8.44
		c-1.65-4.26-4.44-6.44-8.36-6.44c-3.05,0-4.61,1.39-4.61,3.22c0,1.31,0.7,2.26,2,2.96c1.39,0.7,4,1.57,7.92,2.7
		c5.83,1.74,8.88,2.96,12.97,5.83c4.09,2.79,6.09,7.31,6.09,13.32c0,12.45-9.14,19.5-23.76,19.5
		C339.49,358.33,330.35,352.41,327.3,343.01z"/>
</g>
<rect x="75" y="59" class="st0" width="165" height="61"/>
<rect x="75" y="375" class="st0" width="83" height="61"/>
</svg>
