<?xml version="1.0" encoding="utf-8"?>
<!-- Generator: Adobe Illustrator 24.3.0, SVG Export Plug-In . SVG Version: 6.00 Build 0)  -->
<svg version="1.1" id="Layer_1" xmlns="http://www.w3.org/2000/svg" xmlns:xlink="http://www.w3.org/1999/xlink" x="0px" y="0px"
	 viewBox="0 0 700 700" style="enable-background:new 0 0 700 700;" xml:space="preserve">
<path d="M497.8,569.5c-5.4,0-10.1-2.3-14-6.2L350,424.8L216.2,564c-7,7.8-19.4,7.8-27.2,0.8c-3.9-3.9-5.4-8.6-6.2-13.2V149.5
	c0-10.9,8.6-19.4,19.4-19.4l295.5,0c10.9,0,19.4,8.6,19.4,19.4V550C516.4,560.9,507.9,569.5,497.8,569.5L497.8,569.5z M350,377.4
	c5.4,0,10.1,2.3,14,6.2l114.3,119V168.9H221.7v333.7l114.3-119C339.9,379.7,345.3,377.4,350,377.4L350,377.4z"/>
</svg>
