<?xml version="1.0" encoding="utf-8"?>
<!-- Generator: Adobe Illustrator 24.3.0, SVG Export Plug-In . SVG Version: 6.00 Build 0)  -->
<svg version="1.1" id="Layer_1" xmlns="http://www.w3.org/2000/svg" xmlns:xlink="http://www.w3.org/1999/xlink" x="0px" y="0px"
	 viewBox="0 0 700 700" style="enable-background:new 0 0 700 700;" xml:space="preserve">
<style type="text/css">
	.st0{fill-rule:evenodd;clip-rule:evenodd;}
</style>
<path class="st0" d="M349.9,109.1C349.9,109.1,349.9,109.1,349.9,109.1c-0.1,0-0.1,0-0.2,0c-0.1,0-0.3,0-0.4,0
	c-2.6,0.3-4.6,2.4-4.9,5c-24.8,127.5-95.7,208-230.2,230.3c-2.4,0.2-4.4,2-5,4.4c0,0,0,0,0,0.1c0,0.2-0.1,0.3-0.1,0.5
	c0,0,0,0.1,0,0.1c0,0.1,0,0.3,0,0.4c0,0.1,0,0.2,0,0.3c0,0.1,0,0.2,0,0.3c0,0.1,0,0.3,0,0.4c0,0,0,0.1,0,0.1c0,0.2,0.1,0.3,0.1,0.5
	c0.6,2.3,2.6,4,5,4.2c134.5,22.3,205.3,102.8,230.1,230.2c0.2,2.7,2.4,4.8,5,5.1h0h0c0.1,0,0.2,0,0.3,0c0.1,0,0.2,0,0.3,0h0.1
	c2.8-0.1,5.1-2.2,5.4-5c24.9-127.5,95.7-208,230.2-230.3c2.4-0.2,4.5-2,5-4.4c0,0,0,0,0-0.1c0-0.2,0.1-0.3,0.1-0.5c0,0,0-0.1,0-0.1
	c0-0.1,0-0.3,0-0.4c0-0.1,0-0.2,0-0.3c0-0.1,0-0.2,0-0.3c0-0.1,0-0.3,0-0.4c0,0,0-0.1,0-0.1c0-0.2-0.1-0.3-0.1-0.5
	c-0.6-2.3-2.6-4-5-4.2c-134.5-22.3-205.2-102.7-230.1-230.2c-0.2-2.7-2.4-4.8-5-5.1c0,0,0,0,0,0h0c-0.1,0-0.2,0-0.3,0
	C350.1,109.1,350,109.1,349.9,109.1L349.9,109.1z"/>
</svg>
