<?xml version="1.0" encoding="UTF-8"?>
<svg width="700pt" height="700pt" version="1.1" viewBox="0 0 700 700" xmlns="http://www.w3.org/2000/svg">
 <path d="m350 560c-74.262 0-145.48-29.5-197.99-82.012-52.512-52.508-82.012-123.73-82.012-197.99s29.5-145.48 82.012-197.99c52.508-52.512 123.73-82.012 197.99-82.012s145.48 29.5 197.99 82.012c52.512 52.508 82.012 123.73 82.012 197.99s-29.5 145.48-82.012 197.99c-52.508 52.512-123.73 82.012-197.99 82.012zm0-513.33c-61.883 0-121.23 24.582-164.99 68.34-43.758 43.758-68.34 103.11-68.34 164.99s24.582 121.23 68.34 164.99c43.758 43.758 103.11 68.34 164.99 68.34s121.23-24.582 164.99-68.34c43.758-43.758 68.34-103.11 68.34-164.99 0-40.957-10.781-81.195-31.258-116.67-20.48-35.469-49.938-64.926-85.406-85.406-35.473-20.477-75.711-31.258-116.67-31.258zm52.035 319.67-68.367-68.578c-4.8203-4.7383-7.3711-11.316-7-18.062v-116.36c0-8.3359 4.4453-16.039 11.664-20.207s16.117-4.168 23.336 0 11.664 11.871 11.664 20.207v105.72l63 63v0.003906c6.125 6.125 8.5117 15.055 6.2695 23.418-2.2461 8.3672-8.7852 14.902-17.152 17.141-8.3672 2.2383-17.293-0.15625-23.414-6.2852z" fill="#101010" fill-rule="evenodd"/>
</svg>
