<?xml version="1.0" encoding="utf-8"?>
<!-- Generator: Adobe Illustrator 24.3.0, SVG Export Plug-In . SVG Version: 6.00 Build 0)  -->
<svg version="1.1" id="Layer_1" xmlns="http://www.w3.org/2000/svg" xmlns:xlink="http://www.w3.org/1999/xlink" x="0px" y="0px"
	 viewBox="0 0 700 700" style="enable-background:new 0 0 700 700;" xml:space="preserve">
<g>
	<path d="M428.8,509.5h-2.3c-12.8,0-22.2-10.5-22.2-23.3c0-9.3,5.8-16.3,14-19.8c15.2-11.7,84-91,127.2-143.5
		c29.2-37.3,40.8-72.3,31.5-103.8c-9.3-31.5-36.2-51.3-56-58.3c-22.2-8.2-51.3,3.5-78.2,30.3c-9.3,9.3-23.3,8.2-32.7,0
		c-9.3-9.3-8.2-23.3,0-32.7c40.8-39.7,86.3-54.8,124.8-40.8c30.3,10.5,70,39.7,84,88.7c9.3,31.5,9.3,82.8-39.7,144.7
		c-21,26.8-53.7,65.3-80.5,95.7C446.3,504.8,438.1,509.5,428.8,509.5L428.8,509.5z"/>
	<path d="M424.1,509.5c-9.3,0-18.7-4.7-71.2-64.2c-26.8-30.3-59.5-68.8-80.5-95.7c-49-61.8-49-113.2-39.7-144.7
		c14-47.8,53.7-78.2,84-88.7c38.5-14,84,1.2,124.8,40.8c9.3,9.3,9.3,23.3,0,32.7c-9.3,9.3-23.3,9.3-32.7,0
		c-26.8-25.7-56-37.3-77-29.2c-19.8,7-46.7,25.7-56,58.3c-9.3,30.3,2.3,66.5,31.5,103.8c43.2,53.7,112,131.8,127.2,143.5
		c8.2,3.5,12.8,11.7,14,19.8c0,12.8-9.3,23.3-22.2,23.3C425.3,509.5,425.3,509.5,424.1,509.5L424.1,509.5z"/>
	<path d="M277.1,588.8h-2.3c-12.8,0-22.2-10.5-22.2-23.3c0-9.3,5.8-16.3,14-19.8c10.5-8.2,49-50.2,95.7-106.2l4.7-4.7
		c8.2-9.3,22.2-10.5,32.7-3.5c9.3,8.2,10.5,22.2,3.5,32.7l-5.8,4.7C300.4,583,287.6,588.8,277.1,588.8L277.1,588.8z"/>
	<path d="M272.4,588.8c-9.3,0-18.7-4.7-71.2-64.2c-26.8-30.3-59.5-68.8-80.5-95.7c-49-61.8-49-113.2-39.7-144.7
		c14-47.8,53.7-78.2,84-88.7c26.8-9.3,56-5.8,85.2,11.7c3.5,2.3,7,4.7,10.5,7c10.5,7,12.8,21,5.8,31.5s-21,12.8-31.5,5.8
		c-2.3-1.2-4.7-3.5-8.2-4.7c-12.8-7-30.3-14-47.8-8.2c-19.8,7-46.7,25.7-56,58.3c-9.3,30.3,2.3,66.5,31.5,103.8
		c44.3,53.7,114.3,131.8,129.5,144.7c8.2,3.5,12.8,11.7,14,19.8c0,12.8-9.3,23.3-22.2,23.3C274.7,588.8,273.6,588.8,272.4,588.8
		L272.4,588.8z"/>
</g>
</svg>
