<?xml version="1.0" encoding="utf-8"?>
<!-- Generator: Adobe Illustrator 24.3.0, SVG Export Plug-In . SVG Version: 6.00 Build 0)  -->
<svg version="1.1" id="Layer_1" xmlns="http://www.w3.org/2000/svg" xmlns:xlink="http://www.w3.org/1999/xlink" x="0px" y="0px"
	 viewBox="0 0 700 700" style="enable-background:new 0 0 700 700;" xml:space="preserve">
<style type="text/css">
	.st0{fill-rule:evenodd;clip-rule:evenodd;}
</style>
<path class="st0" d="M470.4,425.6l-101.4-56.8l202.9-242L470.4,425.6z M346.7,421.8l11.5-33.9l13.4,7.5L346.7,421.8z M521,122
	L271.3,311.7l-80.2-45L521,122z M343.7,364.9c-0.1,0.1-0.1,0.1-0.2,0.2c-0.2,0.2-0.3,0.4-0.5,0.6c-0.1,0.1-0.2,0.2-0.2,0.4
	c-0.1,0.2-0.2,0.4-0.4,0.6c-0.1,0.1-0.1,0.3-0.2,0.4c-0.1,0.2-0.2,0.4-0.3,0.6c-0.1,0.2-0.1,0.3-0.2,0.5c0,0.1-0.1,0.1-0.1,0.2
	l-21.5,63.5l-35-103.1l244.7-186L343.7,364.9z M611.5,77.8c0-0.2,0.1-0.3,0.1-0.5c0-0.1,0.1-0.3,0.1-0.4c0-0.2,0.1-0.4,0.1-0.5
	c0-0.1,0-0.3,0-0.4c0-0.2,0-0.4,0-0.5c0-0.1,0-0.3,0-0.4c0-0.2,0-0.3,0-0.5c0-0.2,0-0.3,0-0.5c0-0.2,0-0.3-0.1-0.5
	c0-0.2,0-0.3-0.1-0.5c0-0.1-0.1-0.3-0.1-0.4c0-0.2-0.1-0.3-0.1-0.5c0-0.2-0.1-0.3-0.1-0.4c-0.1-0.2-0.1-0.3-0.2-0.5
	c-0.1-0.2-0.1-0.3-0.2-0.5c-0.1-0.1-0.1-0.3-0.2-0.4c-0.1-0.2-0.2-0.5-0.4-0.7c0-0.1-0.1-0.1-0.1-0.2l0,0c-0.2-0.3-0.3-0.6-0.5-0.8
	c-0.1-0.1-0.1-0.1-0.2-0.2c-0.1-0.2-0.3-0.4-0.4-0.6c-0.1-0.1-0.2-0.2-0.3-0.3c-0.1-0.1-0.2-0.3-0.4-0.4c-0.1-0.1-0.2-0.2-0.4-0.3
	c-0.1-0.1-0.2-0.2-0.3-0.3c-0.1-0.1-0.3-0.2-0.4-0.3c-0.1-0.1-0.2-0.2-0.3-0.2c-0.2-0.1-0.3-0.2-0.5-0.3c-0.1-0.1-0.2-0.1-0.3-0.2
	c0,0-0.1,0-0.1,0c-0.1-0.1-0.3-0.2-0.5-0.2c-0.1-0.1-0.3-0.1-0.4-0.2c-0.1-0.1-0.3-0.1-0.4-0.2c-0.2-0.1-0.3-0.1-0.5-0.2
	c-0.1,0-0.2-0.1-0.3-0.1c-0.2-0.1-0.4-0.1-0.6-0.2c-0.1,0-0.2,0-0.3-0.1c-0.2,0-0.4-0.1-0.6-0.1c-0.1,0-0.2,0-0.4,0
	c-0.2,0-0.4,0-0.6-0.1c-0.1,0-0.3,0-0.4,0c-0.2,0-0.4,0-0.5,0c-0.1,0-0.3,0-0.4,0c-0.2,0-0.3,0-0.5,0.1c-0.1,0-0.3,0-0.4,0.1
	c-0.2,0-0.4,0.1-0.5,0.1c-0.1,0-0.3,0.1-0.4,0.1c-0.2,0-0.4,0.1-0.6,0.2c-0.1,0-0.2,0.1-0.3,0.1c-0.2,0.1-0.4,0.2-0.6,0.2
	c-0.1,0-0.1,0-0.2,0.1L162.2,255.5c-3.8,1.7-6.3,5.3-6.5,9.5c-0.2,4.1,2,8,5.6,10.1l102,57.2l46.5,137c0,0,0,0,0,0.1l0,0
	c0.1,0.3,0.2,0.6,0.3,0.8c0.1,0.1,0.1,0.2,0.2,0.4c0.1,0.2,0.2,0.3,0.3,0.5c0.1,0.1,0.1,0.2,0.2,0.4c0.1,0.2,0.2,0.3,0.3,0.5
	c0.1,0.1,0.1,0.2,0.2,0.3c0.2,0.2,0.3,0.4,0.5,0.6c0,0.1,0.1,0.1,0.1,0.2c0.2,0.2,0.5,0.5,0.7,0.7c0,0,0,0,0.1,0.1
	c0.1,0.1,0.1,0.1,0.2,0.1c0.2,0.1,0.3,0.3,0.5,0.4c0.1,0.1,0.2,0.2,0.3,0.2c0.2,0.1,0.3,0.2,0.5,0.3c0.1,0.1,0.2,0.1,0.3,0.2
	c0.2,0.1,0.4,0.2,0.6,0.3c0.2,0.1,0.4,0.2,0.5,0.3c0.2,0.1,0.3,0.2,0.5,0.2c0.1,0.1,0.3,0.1,0.4,0.2c0.2,0.1,0.3,0.1,0.5,0.2
	c0.1,0,0.3,0.1,0.4,0.1c0.2,0,0.3,0.1,0.5,0.1c0.1,0,0.3,0.1,0.4,0.1c0.2,0,0.4,0.1,0.6,0.1c0.1,0,0.2,0,0.3,0c0.3,0,0.6,0,0.9,0
	c0,0,0,0,0,0c0.3,0,0.7,0,1-0.1c0.1,0,0.2,0,0.3,0c0.2,0,0.5-0.1,0.7-0.1c0.1,0,0.2,0,0.3-0.1c0.2-0.1,0.5-0.1,0.7-0.2
	c0.1,0,0.2-0.1,0.3-0.1c0.3-0.1,0.6-0.2,0.9-0.3c0.1,0,0.2-0.1,0.3-0.1c0.2-0.1,0.4-0.2,0.6-0.3c0.1-0.1,0.2-0.1,0.4-0.2
	c0.2-0.1,0.4-0.2,0.6-0.3c0.1-0.1,0.2-0.1,0.3-0.2c0.3-0.2,0.5-0.4,0.8-0.6c0.1-0.1,0.1-0.1,0.2-0.2c0.2-0.2,0.4-0.4,0.6-0.6
	c0,0,0.1-0.1,0.1-0.1l63.1-67l79.9,44.7c1.7,0.9,3.5,1.4,5.3,1.4c1.3,0,2.7-0.2,3.9-0.7c3-1.2,5.4-3.6,6.4-6.7L611.3,78.5
	c0-0.1,0-0.1,0.1-0.2C611.4,78.2,611.4,78,611.5,77.8L611.5,77.8z M200.6,532c-0.4,1.2-0.8,2.4-1.2,3.6
	c-15.3,1.4-30.3-1.7-42.8-12.9c-22-19.7-20.9-38.2-12.6-49c5.1-6.5,13.4-10.9,22.8-10.9c6.1,0,12.6,1.8,19.1,6.2
	C202.7,480.2,208.6,505.6,200.6,532 M285.8,493.4c-0.5,0.4-29.1,25.1-62.1,36.6c7.1-32.7-2.7-63.8-25.6-79.3
	c-12.1-8.1-26.2-11.4-39.6-9.2c-12.7,2.1-23.9,8.7-31.7,18.7c-8.2,10.6-11.6,23.8-9.5,37.3c2.2,14.6,10.8,28.9,24.8,41.4
	c12.9,11.6,28.5,17.8,46.1,18.7c-22.3,31.6-62.5,43.5-97.2,43.5c-6,0-10.9,4.9-10.9,10.9c0,6,4.9,10.9,10.9,10.9
	c66.7,0,106.3-32.6,123.9-67.8c10-2.2,20.4-5.8,31.3-10.8c30.2-13.9,53.1-33.7,54.1-34.6c4.6-4,5-10.9,1-15.4
	C297.3,489.9,290.3,489.4,285.8,493.4"/>
</svg>
