<?xml version="1.0" encoding="utf-8"?>
<!-- Generator: Adobe Illustrator 24.3.0, SVG Export Plug-In . SVG Version: 6.00 Build 0)  -->
<svg version="1.1" id="Layer_1" xmlns="http://www.w3.org/2000/svg" xmlns:xlink="http://www.w3.org/1999/xlink" x="0px" y="0px"
	 viewBox="0 0 700 700" style="enable-background:new 0 0 700 700;" fill="#000" xml:space="preserve">
<path d="M570.4,350c-0.3-6.9-3.1-14.8-7.8-19.8L390.1,148.2c-10.1-11.9-29.4-11.7-40.8-0.9c-11.3,10.8-12.3,29.8-0.9,40.5
	l126.4,133.5H158.4c-15.9,0-28.7,12.9-28.7,28.7s12.9,28.7,28.7,28.7h316.5L348.5,512.3c-11.4,10.7-10.5,29.8,0.9,40.5
	c11.3,10.8,31,10.8,40.8-1l172.5-182.1C567.8,364.2,570.3,357.7,570.4,350L570.4,350z"/>
</svg>
